<?xml version="1.0" standalone="no"?>
<!DOCTYPE svg PUBLIC "-//W3C//DTD SVG 1.1//EN" "http://www.w3.org/Graphics/SVG/1.1/DTD/svg11.dtd" >
<svg xmlns="http://www.w3.org/2000/svg">
<metadata>Generated by IcoMoon</metadata>
<defs>
<font id="monster-slayer" horiz-adv-x="1024">
<font-face units-per-em="1024" ascent="960" descent="-64" />
<missing-glyph horiz-adv-x="1024" />
<glyph unicode="&#x20;" horiz-adv-x="512" d="" />
<glyph unicode="&#xe900;" glyph-name="armor" d="M679.6 893.060l28-5.62c-2.4-6.040-5-12.64-8-19.5-11.6-27.26-28.4-58.62-40-70.24-9.8-9.7-39.6-19.14-66.2-22.96-22.4-3.6-44.8-7.8-67.4-7.8v-31.94h-28v31.94c-24-0.2-48.4 5.2-67.4 7.8-26.6 3.8-56.4 13.24-66.2 22.9-11.6 11.62-28.4 42.98-40 70.22-3 6.88-5.6 13.5-8 19.58l28 5.62c16.8-22.74 76-94.12 167.6-94.12s150.8 71.38 167.6 94.12zM743.4 880.3l63.8-12.76-59.4-148.74 65.4-98-19-132.2c-3.6-2.8-7.6-5.6-12-8.6-22.6-15-52.2-29-78.2-29-8.6 0-24 7-40.4 20.8-16.6 13.8-34 33-49.6 52.4-28.4 35.8-48.6 68.4-52 74v36.8h22v36h-22v28h22v36s77.8 15.4 100.8 37.14c20.4 20.22 35.6 52.86 48 81.64 4 9.58 7.6 18.6 10.6 26.52zM280.6 880.3c3-7.92 6.6-16.96 10.6-26.58 12.4-28.78 27.6-61.42 48-81.58 30.8-26.34 100.8-37.14 100.8-37.14v-36h22v-28h-22v-36h22v-36.8c-3.4-5.6-23.6-38.2-52-74-15.6-19.4-33-38.6-49.6-52.4-16.4-13.8-31.8-20.8-40.4-20.8-26 0-55.6 14-78.2 29-4.4 3-8.4 5.8-12 8.6l-19 132.2 65.4 98-59.4 148.76zM526 699v-28h-28v28zM526 635v-47l2.6-4.2s24.4-40.8 57.4-82c16.4-20.6 35-41.4 54.4-57.6 19.6-16.2 40.2-29.2 63.6-29.2 31.2 0 60 12.2 83.4 26l-4.2-30-108.4-81.4-162.8 195.6-162.8-195.6-108.4 81.4-4.2 30c23.4-13.8 52.2-26 83.4-26 23.4 0 44 13 63.6 29.2 19.4 16.2 38 37 54.4 57.6 33 41.2 57.4 82 57.4 82l2.6 4.2v47zM512 468.8l157.2-188.4 66.2 49.6-14.8-74c-26.2-6.2-128.4-29-208.6-29s-182.4 22.8-208.6 29l-14.8 74 66.2-49.6zM692.6 212.8l17.4-69.8c-11.8-4-25-8.4-39.2-12.8-8.4-2.6-17.2-5.2-26-7.6l-13.2 79.2c22.6 3.6 43.6 7.6 61 11zM331.4 212.8c17.4-3.4 38.4-7.4 61-11l-13.2-79.2c-8.8 2.4-17.6 5-26 7.6-14.2 4.4-27.4 8.8-39.2 12.8zM595.8 196.8l13.8-83.4c-27.8-6.6-55.6-11.8-79.6-13.6v91.6c21.6 0.6 44 2.8 65.8 5.4zM428.2 196.8c21.8-2.6 44.2-4.8 65.8-5.4v-91.6c-24 1.8-51.8 7-79.6 13.6zM755.4 121l22.4-89.4s-112.4-40.4-171.2-48.6c-62.4-8.6-126.8-8.6-189.2 0-58.8 8.2-171.2 48.6-171.2 48.6l22.4 89.4c16.2-6.2 40.2-14.8 74.2-25.2 52.6-16.2 117.2-32.8 169.2-32.8s116.6 16.6 169.2 32.8c34 10.4 58 19 74.2 25.2z" />
<glyph unicode="&#xe901;" glyph-name="sword" d="M983.688 914.934l-166.84-29.73-423.704-423.704c6.524-9.63 10.74-21.44 10.74-33.864 0-11.726-3.42-22.7-9.286-31.992-10.13 3.212-20.896 4.954-32.054 4.954-31.448 0-59.808-13.78-79.38-35.592l-18.224 18.226 34.474 34.474c-9.030 11.544-17.814 23.29-26.38 35.2l-38.886-38.88-26.43 26.43 43.656 43.654c-8.806 13.18-17.34 26.556-25.584 40.136l-81.604-81.606 116.628-116.628c-3.226-10.15-4.98-20.94-4.98-32.126 0-15.332 3.3-29.92 9.184-43.128l-144.28-144.28-29.12 29.12-49.592-49.598 29.116-29.12-17.214-17.216 54.492-54.492 17.212 17.22 29.12-29.12 49.596 49.6-29.114 29.112 144.316 144.32c13.172-5.844 27.716-9.124 42.996-9.124 11.186 0 21.976 1.754 32.126 4.98l116.726-116.726 81.602 81.606c-13.594 8.254-26.972 16.79-40.136 25.586l-43.66-43.66-26.424 26.434 38.884 38.88c-11.924 8.58-23.67 17.366-35.206 26.388l-34.476-34.476-18.32 18.32c21.81 19.57 35.59 47.93 35.59 79.38 0 10.692-1.612 21.020-4.57 30.78 9.406 6.080 20.576 9.634 32.53 9.632 12.42 0 23.552-3.54 33.040-9.91l423.708 423.706 29.728 166.834zM851.234 808.91l26.43-26.43-383.368-383.36-26.428 26.426 383.366 383.364zM362.546 363.22c38.514 0 69.33-30.82 69.33-69.33 0-38.512-30.816-69.332-69.33-69.332-38.512 0-69.332 30.82-69.332 69.33s30.82 69.332 69.332 69.332z" />
<glyph unicode="&#xe902;" glyph-name="physical" d="M397.688 830.5c-1.97 0-3.948-0.060-5.94-0.188-31.83-2.030-64.092-23.068-75.56-53.874-68.144-183.064-102.17-257.73-123-445.752 29.266-26.98 63.26-52.9 100.5-76.25l132.812 392.934 35.376-11.936-135.316-400.434c39.020-21.754 80.86-40.468 124-54.56l150.814 403.060 35-13.060-149.874-400.564c38.908-10.192 78.41-16.4 117.56-17.75l158.63 356.874 34.188-15.188-151.75-341.312c43.64 2.474 86.41 11.536 126.874 28.56 86.634 107.688 145.266 219.568 169 345.38 10.184 53.984-29.524 106.248-108.44 109.62l-12.31 0.564-4.376 11.5c-16.9 44.776-39.5 60.186-63 64.94-23.5 4.752-50.534-3.070-70.936-14.752l-26.128-14.94-1.812 30c-1.98 32.792-20.686 59.194-48.626 71.252-27.94 12.060-66.128 10.464-109.624-19.812l-20.876-14.5-7.624 24.25c-13.034 41.532-40.014 55.97-69.56 55.94zM206.56 583.312c-64.274-90.208-111.104-222.432-103.746-342.624 55.080-43.68 109.22-67.386 160.126-70.876 28.31-1.94 55.88 2.17 82.81 12.876-70.89 34.47-134.72 79.066-185.188 127.060l-6.686 6.314 1 9.19c11.588 109.276 27.892 183 51.688 258.060z" />
<glyph unicode="&#xe903;" glyph-name="magical" d="M491.626 913.624c-2.456 0.012-4.91-0.054-7.314-0.186-20.206-1.12-39.292-7.364-60.312-22.5l41.44-393.564c-16.788-4.254-33.352-8.94-49.628-14.188l-140.372 361.19c-14.064 3.412-34.884 0.6-54.252-9.252-20.496-10.426-38.068-27.68-45.626-45.874l134.498-352.25c-14.828-8.69-29.18-18.274-43-28.94l-148.686 188.5c-32.68-1.396-69.93-28.91-75.124-65.31 14.53-16.636 144.706-166.79 208.75-286.060 20.6-38.368 59.086-101.45 78.376-140.128 11.66-23.386 32.008-48.476 55.686-64.684 23.68-16.208 49.4-23.64 75.814-16.564l225.814 60.44c10.986 2.94 18.392 10.78 26.44 23.874 8.040 13.090 15.070 30.274 25.81 46 41.22 60.37 100.864 152.17 230.372 224.124-5.392 30.106-14.81 49.14-25.44 59.126-12.060 11.334-26.396 14.744-47.372 11.686-36.124-5.26-86.996-34.126-139.188-73.748-3.36-2.78-6.636-5.604-9.874-8.44l-14 122.504 85 311.436c-8.956 14.71-27.612 26.516-49.69 31.94-21.748 5.34-45.012 3.396-60.56-3.19l-77.5-299.748c-18.73-3.16-37.464-6.34-56.128-9.624l-28.18 384.806c-20.114 5.040-38.568 8.544-55.75 8.626zM468.686 450l60.314-113.25 108.812 67.812-67.56-108.372 112.872-60.19-128.314 4.376 4.376-128.064-60.060 112.688-108.566-67.626 67.94 108.876-113.060 60.25 127.56-4.312-4.312 127.812z" />
<glyph unicode="&#xe904;" glyph-name="breastplate" d="M648.688 825.5c-88.95-38.628-182.060-51.906-273.312-3.876v-79.060c91.72-44.986 180.974-42.052 273.312 0.56v82.376zM267.44 811.56c-13.62-0.070-26.896-0.756-39.752-2-6.25-48.12 12.234-104.19 49.25-147.56 14.46 9.87 27.496 20.56 39.060 31.44-12.3 39.14-20.586 77.834-23.25 117.436-4.28 0.19-8.648 0.54-12.876 0.624-4.164 0.080-8.33 0.084-12.436 0.060zM758.126 811.56c-4.108 0.024-8.272 0.020-12.44-0.060-4.214-0.084-8.54-0.436-12.812-0.626-2.66-39.6-10.95-78.296-23.25-117.436 11.566-10.88 24.6-21.57 39.064-31.44 37.014 43.37 55.5 99.44 49.25 147.56-12.884 1.248-26.172 1.93-39.816 2zM189.5 803.876c-27.396-5.724-52.048-14.734-72.812-27.186-0.386-58.536 26.032-119.904 66.312-154.44l-2.44-2.81c23.174 5.32 44.428 13.388 63.752 23.248-38.36 46.94-58.984 105.524-54.812 161.188zM836.126 803.876c4.172-55.66-16.454-114.246-54.814-161.186 19.326-9.86 40.58-17.928 63.75-23.25l-2.434 2.81c40.292 34.546 66.66 95.946 66.25 154.5-20.752 12.43-45.372 21.408-72.75 27.126zM80.812 747.876c-26.636-28.872-41.76-68.814-41.060-124.812 35.774-9.376 68.924-12.052 99.372-9.872-32.14 36.22-52.792 84.58-58.312 134.688zM944.812 747.876c-5.52-50.104-26.168-98.468-58.312-134.686 30.45-2.18 63.6 0.496 99.376 9.874 0.7 56-14.428 95.94-41.064 124.814zM677.372 715.064l-1.746-0.872c-48.048-23.674-96.848-37.534-145.814-40.56v-428.19c147.18 52.020 245.626 162.090 245.626 288.5 0 26.22-4.28 51.772-12.316 76.31-35.326 18.034-64.932 41-88 64.126l-8.186 8.186 3.684 10.94c2.41 7.246 4.64 14.434 6.75 21.56zM348.5 714.192c2.036-6.844 4.188-13.74 6.5-20.688l3.626-10.94-8.126-8.186c-24.848-24.912-57.24-49.68-96.25-68.25-7.288-23.274-11.126-47.446-11.126-72.186 0-126.808 100.9-237.42 249.314-289.19v428.688c-48.19 2.508-96.37 15.76-143.94 40.748zM314 306.56c-11.866-9.632-22.792-19.654-33-30 44.066-34.97 101.14-71.134 159-86.748 10.090 11.44 21.22 22.328 33.56 32.626l-159.56 84.122zM709.812 306.56l-159.56-84.12c12.696-10.6 24.116-21.826 34.436-33.628 58.012 14.76 115.468 50.604 160.124 85.688-10.774 11.068-22.354 21.796-35 32.060zM255.872 248.75c-12.5-15.074-23.89-30.72-34.5-46.75 46.456-36.888 107.396-75.108 168.5-89.188 7.36 15.58 15.8 30.71 25.566 45.188-60.92 19.42-116.4 56.16-159.564 90.75zM769.812 246.562c-43.66-34.66-99.514-71.060-160.624-89.748 9.608-14.386 17.934-29.412 25.188-44.874 61.176 12.996 122.446 50.772 169.56 87.748-10.52 16.048-21.748 31.766-34.124 46.874zM201.44 170.128c-11.706-19.646-22.788-39.74-33.94-60.064 56.472-54.37 118.512-84.59 190.56-91.56 4.66 20.148 10.33 39.988 17.314 59.312-66.144 16.596-126.892 55.26-173.936 92.312zM823.812 167.688c-47.6-37.080-108.69-75.166-175-90.812 6.83-19.026 12.36-38.554 16.94-58.374 72.048 6.97 134.088 37.19 190.56 91.56-10.692 19.492-21.328 38.756-32.5 57.628z" />
<glyph unicode="&#xe905;" glyph-name="broadsword" d="M983.688 914.934l-166.84-29.73-423.704-423.704c6.524-9.63 10.74-21.44 10.74-33.864 0-11.726-3.42-22.7-9.286-31.992-10.13 3.212-20.896 4.954-32.054 4.954-31.448 0-59.808-13.78-79.38-35.592l-18.224 18.226 34.474 34.474c-9.030 11.544-17.814 23.29-26.38 35.2l-38.886-38.88-26.43 26.43 43.656 43.654c-8.806 13.18-17.34 26.556-25.584 40.136l-81.604-81.606 116.628-116.628c-3.226-10.15-4.98-20.94-4.98-32.126 0-15.332 3.3-29.92 9.184-43.128l-144.28-144.28-29.12 29.12-49.592-49.598 29.116-29.12-17.214-17.216 54.492-54.492 17.212 17.22 29.12-29.12 49.596 49.6-29.114 29.112 144.316 144.32c13.172-5.844 27.716-9.124 42.996-9.124 11.186 0 21.976 1.754 32.126 4.98l116.726-116.726 81.602 81.606c-13.594 8.254-26.972 16.79-40.136 25.586l-43.66-43.66-26.424 26.434 38.884 38.88c-11.924 8.58-23.67 17.366-35.206 26.388l-34.476-34.476-18.32 18.32c21.81 19.57 35.59 47.93 35.59 79.38 0 10.692-1.612 21.020-4.57 30.78 9.406 6.080 20.576 9.634 32.53 9.632 12.42 0 23.552-3.54 33.040-9.91l423.708 423.706 29.728 166.834zM851.234 808.91l26.43-26.43-383.368-383.36-26.428 26.426 383.366 383.364zM362.546 363.22c38.514 0 69.33-30.82 69.33-69.33 0-38.512-30.816-69.332-69.33-69.332-38.512 0-69.332 30.82-69.332 69.33s30.82 69.332 69.332 69.332z" />
<glyph unicode="&#xe906;" glyph-name="fencingarmor" d="M324 888.5l-188.98-54.2c-24.1-12.6-46.94-47.8-62.020-92.7-12.14-36.4-19.24-77.8-21.86-116.6l222.26 111zM700 888.3l50.8-152.3 222-111.2c-2.6 38.6-9.8 80.4-21.8 116.6-11.4 34.1-27.2 62.7-45 80.1-5.4 5.6-11 9.8-16.8 12.8zM354.2 865.3l-51.4-154.9-185.8-92.8 28.16-107 177.64-88.8 189.2 31.8 189.2-31.8 177.6 88.8 28.2 107-185.6 92.8-51.6 154.7h-21l-118.6-147.9-0.2-122.2h-36.2l0.2 122-118.6 148.3zM157.3 464.6l44.1-167.8 292.4 87.6v29.4l-176.8-29.4zM866.8 464.6l-160-80.2-176.8 29.4v-29.4l292.6-87.6zM493.8 347.2l-63.2-19.2-70.2-140.4 133.4 66.6zM530 347.2v-93l133.8-66.8-70.4 140.6zM383.4 314l-172.8-52 50.6-192.6zM640.6 313.8l122.2-244.2 50.6 192.4zM530 213.8l0.2-86.4 201.4-75.6-40.8 81.6zM493.8 213.8l-160.4-80.2-41-81.8 201.6 75.6zM494 89l-163.2-61.2 163.2-20.4zM530.2 89v-81.4l163.4 20.4z" />
<glyph unicode="&#xe907;" glyph-name="garb" d="M311.6 909.72c-60.4-0.68-127.040-8.64-177.54-26.68-26.42-9.42-48.2-21.56-62.52-35.46-9.48-9.2-15.56-18.88-18.78-29.8 66.68-0.080 184.040-2.76 264.44-57.56 19.4 25.28 24 54.16 21 81.8-3.2 28.2-15.6 53.84-26.6 67.7zM712.4 909.72c-11-13.86-23.4-39.5-26.6-67.7-3-27.64 1.6-56.52 21-81.8 80.4 54.8 197.8 57.56 264.4 57.56-3.2 10.92-9.2 20.6-18.8 29.8-14.2 13.9-36 26.040-62.4 35.46-50.6 18.040-117.2 26-177.6 26.68zM374.8 826.82c0-15.88-2.4-32.28-7.8-48.32 44.6-43.5 95-64.5 145-64.5s100.4 21 145 64.52c-5.2 15.48-7.6 31.28-7.8 46.62-93.8-15.46-185.2-13.62-274.4 1.68zM206.2 766.3c-1.6-31.3-3.6-64.9-6.48-100.5 18.88 6.4 39.080 16.4 58.28 29.2 15 10 29.2 21.6 41.6 33.8-25.6 17.8-58.6 29.6-93.4 37.5zM817.8 766.28c-34.8-7.88-67.8-19.68-93.4-37.48 12.4-12.2 26.6-23.8 41.6-33.8 19.2-12.6 39.4-22.8 58.2-29.2-2.8 35.4-4.8 69.2-6.4 100.48zM356 739.8c-19.2-28.4-47.2-54.2-78-74.8-26-17.4-54-31-81.1-37.8 10.7-12 21.9-25 32.9-38.6 44.4-29.2 81.6-42.6 122.2-42.6 41.8 0 89.2 14.8 152 46.2l8 4 8-4c62.8-31.4 110.2-46.2 152-46.2 40.6 0 77.8 13.4 122.2 42.6 11 13.6 22 26.6 32.8 38.6-27 6.8-55 20.4-81 37.8-30.8 20.6-58.8 46.4-78 74.8-47.2-40.6-101.4-61.8-156-61.8s-108.8 21.2-156 61.8zM191.76 578.2c-19.48-189.6-57.52-414-126.58-604.8 49.18 24 100.66 43.8 153.62 59.2-16.6 39.4-33.080 101.4-11.8 165 28.6 86.4 81.2 170.6 94.8 191.4-2.8 24.4-23.6 69.4-52.8 113-17.4 26.2-37.6 52.6-57.24 76.2zM832.2 578.2c-19.8-23.6-39.8-50-57.2-76.2-29.2-43.6-50-88.6-52.8-113 13.6-20.8 66.2-105 94.8-191.4 21.2-63.6 4.8-125.6-11.8-165 53-15.4 104.4-35.2 153.6-59.2-69 190.8-107 415.2-126.6 604.8zM494 547.6c-53.4-24.4-98.8-37.6-142-37.6-25.4 0-49.6 4.6-74 13.4 0.4-0.6 0.6-1 1-1.4 30.4-45.6 54.8-90 58.4-128.8 12.8-10.6 35.8-20.8 64.8-27.6 10.4-2.4 21.6-4.6 33-6.2 4.6 9.8 12 18.4 20.8 25 10.6 8 23.6 13.4 38 16v147.2zM530 547.6v-147.2c14.4-2.6 27.4-8 38-16 8.8-6.6 16.2-15.2 20.8-25 11.4 1.6 22.6 3.8 33 6.2 29 6.8 52 17 64.8 27.6 3.6 38.8 28 83.2 58.4 128.8 0.4 0.4 0.6 0.8 1 1.4-24.4-8.8-48.6-13.4-74-13.4-43.2 0-88.6 13.2-142 37.6zM512 366c-14 0-26.4-4.4-34.4-10.4-8.2-6.2-11.6-12.8-11.6-19.6s3.4-13.4 11.6-19.6c8-6 20.4-10.4 34.4-10.4s26.4 4.4 34.4 10.4c8.2 6.2 11.6 12.8 11.6 19.6s-3.4 13.4-11.6 19.6c-8 6-20.4 10.4-34.4 10.4zM324.4 357.4c-17.4-28-59.2-98.6-83.4-171-26.6-80.2 21-161.6 27.6-172.4 60-28.4 151.6-44 243.4-44s183.4 15.6 243.4 44c6.6 10.8 54.2 92.2 27.6 172.4-24.2 72.4-66 143-83.4 171-18.8-12.2-42.8-20.8-69.4-27-12-2.8-24.6-5.2-37.8-7-3.4-14.4-12.6-26.8-24.4-35.8-15-11.2-34.6-17.6-56-17.6s-41 6.4-56 17.6c-11.8 9-21 21.4-24.4 35.8-13.2 1.8-25.8 4.2-37.8 7-26.6 6.2-50.6 14.8-69.4 27z" />
<glyph unicode="&#xe908;" glyph-name="tunic" d="M650.82 895.64l-205.696-411.398h27.422l39.454 39.454 39.454-39.454h140.546l149.894 359.746c-16.22 9.972-47.94 23.43-82.628 32.89-38.1 10.392-79.256 17.308-108.446 18.762zM372.41 895.598c-29.152-1.542-69.906-8.42-107.676-18.72-34.688-9.46-66.408-22.92-82.628-32.89l149.894-359.746h72.88l77.444 154.89zM430.91 850.472l72.5-169.168 83.968 167.942c-53.896-11.504-102.158-11.122-156.468 1.226zM176.832 763.044l-87.382-131.080 131.76-79.058 30.48 30.48zM847.168 763.044l-74.86-179.658 30.48-30.48 131.762 79.060zM512 472.79l-40.84-40.84 40.84-61.26 40.84 61.26zM306 448.24v-60h151.036l-32.196 48.294 11.706 11.706zM587.454 448.24l11.706-11.706-32.196-48.294h151.036v60zM329.204 352.24l-52.090-330.48c228.44-28.536 241.332-28.536 469.772 0l-52.090 330.48h-151.832l-30.964-46.444-30.964 46.446z" />
<glyph unicode="&#xe909;" glyph-name="axe" d="M480.188 920.812c-113.38-0.728-221.764-58.108-303.188-144.688-106.856-113.62-163.896-275.814-122.060-420.186 32.66 17.594 65.514 31.974 97.872 42.748-12.654 246.32 178.494 421.844 400.060 420.688 8.51 26.73 20.536 54.616 36.254 83.748-32.646 10.86-65.472 16.72-97.94 17.564-3.666 0.094-7.34 0.148-11 0.124zM542.56 782.060c-195.112-3.49-359.826-154.2-352.746-372.62 21.972 5.46 43.576 9.164 64.56 10.872 29.18 2.374 57.38 0.926 83.566-4.874l218.684 218.682c-10.52 24.2-16.946 50.048-18.688 77.5-1.432 22.512 0.28 45.966 5.184 70.44-0.186-0.004-0.374 0-0.56 0zM664.25 660.624l-33.75-33.75 61-60.874 33.626 33.626-60.876 61zM590 614.624l-238.75-238.75 89.25-89.124 238.626 238.626-89.126 89.248zM969.75 522.438c-28.932-15.616-56.636-27.614-83.188-36.128 1.5-222.026-174.486-413.6-421.372-400.56-10.78-32.208-25.104-64.924-42.626-97.44 144.38-41.844 306.626 15.2 420.252 122.060 114.090 107.3 177.032 261.44 126.94 412.066zM697.75 491.124l-216.376-216.374c6.46-27.126 8.172-56.49 5.688-86.94-1.724-21.16-5.504-42.952-11.060-65.12 219.17-7.436 370.256 158.016 373.188 353.81-24.684-5.012-48.32-6.806-71-5.376-28.574 1.8-55.396 8.694-80.44 20zM339 335.374l-298.812-298.814v-64.56h57.312l302.376 302.376-60.876 61z" />
<glyph unicode="&#xe90a;" glyph-name="staff" d="M671.312 920.94c-49.020-0.186-97.986-10.47-142.124-31.252-44.92-21.154-86.224-68.404-116.75-125.126-30.528-56.72-50.364-122.524-55.38-177.5-14.974-164.224-103.852-310.704-319.56-505.12l-0.376-42.88c141.31 114.052 242.708 227.674 315.504 340.938l0.126-0.060c-18.586-64.946-45.246-126.36-87.188-175.94-62.94-71.168-138.444-142.2-228.936-213.060l-0.124-16.5 50.94-0.128 2.56 2.312c48.81 32.996 97.214 62.976 145.188 83l0.374-0.374-92.872-85 57.874-0.126c96.744 83.37 189.428 181.16 259.252 274 67.174 89.316 112.040 174.624 121.376 233.688-2.536 4.64-5.104 9.256-7.312 14.188-37.666 84.12-8.546 192.848 80.436 232.126 65.46 28.9 149.708 6.33 180.876-62.688 0.3-0.666 0.648-1.268 0.94-1.94 26.604-48.124 12.35-98.96-18.69-123.94-15.732-12.656-36.884-19.056-57.5-13.12-20.62 5.932-38.086 23.544-49 50.248l34.56 14.124c7.984-19.528 17.334-26.3 24.75-28.44 7.416-2.132 15.534-0.296 23.75 6.316 16.432 13.22 28.564 43.82 8.812 78.060l-0.56 0.94-0.44 1c-21.4 49.64-83.92 66.666-132.44 45.25-68.126-30.074-91.188-116.104-61.372-182.69 41.054-91.692 155.94-122.354 244.75-81.75 120.314 55 160.26 206.656 106.188 323.626-49.474 107.006-162.82 164.968-277.816 167.686-3.266 0.080-6.544 0.14-9.812 0.126zM619.812 867.5c6.476-0.070 12.726-0.696 18.812-1.812 20.686-3.796 39.892-13.506 58.064-26.5-61.246 10.874-116.648-9.224-161.56-49.564-44.88-40.304-78.32-101.18-91.566-169.436-9.31 22.716-14.332 42.924-13.372 63.44 0.592 12.686 3.43 25.912 9.56 40.434 18.188 36.032 42.064 67.892 70.44 93.38 15.648 14.052 32.78 26.14 51.060 35.81 21.864 10.424 41.044 14.44 58.564 14.25zM865.688 742.874c45.166-26.334 68.73-83.72 65.874-141.312-1.128-22.79-6.932-45.95-17.81-67.248-24.96-37.874-71.060-51.020-99.94-41.75l-0.184 0.5c55.886 20.73 78.36 64.754 80.624 110.38 0.248 5 0.23 9.988-0.060 14.936 2.894 26.62-0.824 57.586-10.94 86.874-4.488 12.992-10.3 25.78-17.688 37.44l0.128 0.186zM594.562 740.25c-41.94-38.684-58.812-70.504-66.5-102.5-7.696-32.046-5.576-65.68-5.81-105.75-0.28-47.58-5.12-103.084-36.876-171.376-0.010-0.024-0.050-0.036-0.060-0.060-42.19-53.506-90.552-104.5-137.814-134.752l-0.126 0.060c128.39 143.090 137.054 229.584 137.5 306.38 0.224 38.394-2.506 75.188 6.876 114.248 1.14 4.74 2.466 9.484 4 14.25h0.060c16.196 34.072 33.144 52.116 50.94 63.126 14.36 8.88 30.070 13.394 47.812 16.374z" />
<glyph unicode="&#xe90b;" glyph-name="robe" d="M511.126 921.374c-17.18-0.414-36.108-8.68-56.44-25.812l-147.186-211.31 155.25-73.5-70.5 63.812c98.796 205.692 144.010 201.984 235.56 0l-69.684-63.12 154.686 72.81-147.56 211.812c-19.388 18.864-36.8 25.734-54.126 25.314zM676.312 625.75l-166.812-78.5-7.94 3.75-153.12 72.5-209.754-245.688 37.5-28.25 132.060-30.12 57.88 236.434 34.434-16.312-139.060-567.81h185.812l31.188 530.94 31.188-14.752 35.5 16.748 31.312-532.94h185.812l-139.5 569.44 34.5 16.25 58.44-238.5 143.374 32.81 28.874 26.060-211.688 247.94zM206.188 304.374c-2.532-6.728-3.94-14.016-3.94-21.624 0-33.968 27.534-61.5 61.5-61.5 7.508 0 14.726 1.352 21.38 3.812l14.184 58.066-93.124 21.25zM819.812 304.374l-95.124-21.75 13.812-56.56c7.3-3.068 15.33-4.814 23.75-4.814 33.968 0 61.5 27.532 61.5 61.5 0 7.62-1.412 14.896-3.94 21.626z" />
<glyph unicode="&#xe90c;" glyph-name="rod" d="M575.4 922.16l-137.2-7.24 2.2-30.22 0.8 0.2c11.6 2.48 22.6 3.78 32.8 4.1 30.8 0.96 55.8-6.9 76.4-18 7.8-4.26 15-8.86 22-13.52zM479.8 853.38c-1.4 0-3 0-4.4-0.2-7.8-0.34-16.2-1.46-25.6-3.4-55.4-19-92.2-41.82-113-64.18-21-22.36-26.4-43.2-22.4-64 7.6-38.4 56.2-82.4 136.6-109.8v66.6c-10 5.4-17.8 11.8-21.6 23-2.6 7.4-1.8 15.6 0.4 21.8 2.2 6.4 5.6 11.4 9.6 16.8l9 12.2 13.6-7c96.2-48.8 163.2-61.2 216.6-39 25.6 10.6 32.8 20.6 33.6 23.8 0.6 3.2-1 9-11.4 18-20.4 18.44-66.4 37.56-94.2 44.4l-2 0.54-2 1.040c-27.4 14.46-47.4 33.4-69.4 45.36-15.6 8.4-31.6 14.22-53.4 14.040zM579.4 779c8.73-0.018 15.8-7.065 15.8-15.756 0-0.001 0-0.003 0-0.004v0c0-0.025 0-0.054 0-0.084 0-8.691-7.070-15.738-15.798-15.756h-0.002c-8.73 0.018-15.8 7.065-15.8 15.756 0 0.030 0 0.059 0 0.089v-0.005c0 0.001 0 0.003 0 0.004 0 8.691 7.070 15.738 15.798 15.756h0.002zM875 713.6c-24.6-0.6-48-7-66-16.8-21 2.8-42.8 8.4-65.4 15.4-5.4-11.2-15.2-20.4-29.2-28.6 27.8-9.2 56.2-17.4 84.8-21.8 5.4-25.6 16-51 35.4-74.2l27.6 23.2c-15.4 18.4-23.8 37.4-28 58 16.8 6.6 41.4 11 62.4 7l6.4 35.6c-9.4 1.6-18.8 2.4-28 2.2zM487 693.8v-115.4c13.4 3.6 25.6 7 35.2 10 7.2 2.4 12.2 4.4 15.2 6l0.6 80c-16.4 5.2-33.2 11.6-51 19.4zM573.8 642.2l-0.4-54.8v0.6c0.2-7.2-3.4-13.4-6.6-17-3.4-3.6-6.8-5.6-10.2-7.6-7-3.8-14.6-6.4-23.6-9.2-17.8-5.6-40.2-11.2-62.6-18s-44.8-15.2-61.2-24.8c-16.2-9.8-25.2-20-27.2-30.4-6.2-32.8-0.2-51.2 15-68.4 10.4-12.2 27.2-23.4 48-34.4l-4.8 42.6 12.2 5.2c36.6 16.2 76.6 27.6 110.6 42.2 34.2 14.4 61.4 31.6 76.4 56.4 9.4 15.8 11 27.2 9 38-1.8 10.6-8 21.4-18.2 32.8-14 15.6-35 31-56.4 46.8zM539.6 420.4c-20.8-7.6-41.6-14.6-60.6-22.4l6.6-60.4h0.2c18 5.8 34.8 10.8 45.8 15.2 4.6 2 7.4 3.6 9.2 4.8zM576.2 389.6l0.6-36.4v-0.4c0-10.6-6.8-18.4-12.6-23-5.8-4.4-12-7.4-19-10.2-14-5.8-30.8-10.6-48.2-16.2-34.2-11-68-26.8-77.8-42.6-11-31.6-7-46.6 4-60 6.8-8.4 18-16 31.6-23.6l-4.4 37.4 14.6 4.2s39.8 11.8 80.4 31.6c20.4 10 40.8 21.8 55.8 34.6 15.2 12.6 24 25.6 25.6 36.2 0.8 5-1.6 13.4-8 23.8-6.6 10.2-16.8 21.4-27.6 31.4-5 4.8-10.2 9.2-15 13.2zM536.4 206.6c-19.8-8.4-35.6-13.8-46.2-17.2l1-14 7-59.4-2.8 1.4 0.2-2.4 2.4 0.6c11.8 2.8 21.8 5.8 27 8.6 5.4 2.8 4.4 2.6 4.4 2.8l6.6 74.4zM569.6 171.4l-4.2-47.6c-1.4-15-13-26-23.8-31.6-11-5.6-23-8.6-35.4-11.6-24.8-5.8-51.8-11.6-66.2-21.2-14.2-9.4-22.6-18.6-26.6-25.8-4-7.4-4.2-12.2-2.4-18.2 2.6-8 12.2-18.8 28.4-29-0.2 8.8 0.8 17 4.4 25.2 3.8 8.6 11.6 15.6 19.6 19.4s16.4 5.6 26.4 7.4c22.2 3.8 55.8 11 83.2 24.4s46.4 30.8 49.4 56.2c0.4 4-1.6 9.8-7.8 17.6-6 7.6-15.8 15.8-26 23-6.6 4.4-13 8.4-19 11.8zM532 10.4c-10.4-2.6-20-4.6-28.4-6.2l2-29 24.6-1.4z" />
<glyph unicode="&#xe90d;" glyph-name="hammer" d="M532.066 895.16l-170.476-170.476v-39.598l210.074 210.074h-39.598zM615.122 887.704l-246.076-246.076 336.582-336.58 246.076 246.072-336.584 336.58zM959.162 507.664l-210.078-210.074h39.598l170.476 170.476v39.598zM479.356 480.41l-19.8-19.8 65.054-65.056 19.8 19.8-65.054 65.056zM434.102 435.156l-47.056-47.054h94.11l-47.054 47.054zM351.046 352.102l-54.51-54.512h130.108l54.512 54.512h-130.11zM260.536 261.59l-54.508-54.508h130.108l54.508 54.508h-130.108zM206.028 171.082l47.054-47.054 47.054 47.054h-94.108zM162.57 163.626l-19.796-19.798 65.054-65.054 19.796 19.796-65.054 65.054zM85.036 125.828l-15.008-45.024 74.776-74.776 45.024 15.008v24.828l-79.968 79.964h-24.824z" />
<glyph unicode="&#xe90e;" glyph-name="bow" d="M663.468 919.114c-0.077 0.002-0.167 0.004-0.258 0.004-1.207 0-2.357-0.242-3.405-0.679l0.058 0.022c-55.472-23.086-94.59-114.99-59.798-153.342 67.040-77.892 145.67-111.146 180.294-256.868 5.214-40.3 2.436-80.188 0-120.5-34.624-145.722-113.254-178.976-180.294-256.868-34.792-38.352 4.326-130.256 59.798-153.342 18.076-7.524 56.050 52.33 43.504 50.418-32.68-4.982-75.6 41.882-56.774 57.86 76.94 65.3 210.98 200.11 200.554 271.104-4.422 30.114-18.7 60.72-31.148 91.078 12.45 30.36 26.726 60.964 31.148 91.080 10.428 70.992-123.612 205.802-200.554 271.104-18.824 15.976 24.094 62.84 56.774 57.86 11.762-1.794-20.88 50.7-39.9 51.070zM304 911.54l-42.882-107.204 42.882-42.882 42.882 42.882zM286 728.546v-593.092l18 18 18-18v593.092l-18-18zM606 708.852v-521.648l36 35.060v451.528zM304 102.546l-46-46v-77.092l46 46 46-46v77.092z" />
<glyph unicode="&#xe90f;" glyph-name="rapier" d="M996.060 929.75l-174.12-69.44-329-329-69.314 64.19 62.312 57.688-446 267.188 312.372-289.376-62.188-57.626 127.126-117.75-140.060-140.060c5.864-7.060 11.83-14.020 17.936-20.876l19.312-19.312 143 143 27.436-25.376-144-144 19.686-19.688c7.004-6.232 14.088-12.38 21.314-18.374l144 144 81.564-75.5-58-53.752 446-267.188-317.38 293.94 58 53.684-134.434 124.564 325 325 69.436 174.060zM861.38 822.374l26.436-26.436-327.256-327.252-27.434 25.374 328.25 328.316zM179.38 388.624l-55.632-55.624 274.692-274.75 55.62 55.688c-112.566 69.348-206.028 163.234-274.686 274.684zM216.88 187l-162-162 35.5-35.5 162 162-35.5 35.5z" />
<glyph unicode="&#xe910;" glyph-name="javelin" d="M36.312 930.124l2.376-219.624 39-34.44c30.98 46.86 73.38 83.32 130.188 102.94l-161 151.126h-10.564zM372.562 822.564c-0.792-89.788-21.284-164.408-62.31-223 234.272-211.848 600.624-546.124 600.624-568.378-22.35 0-395.688 322.324-633.5 529.188-51.756-51.774-124.976-86.76-220.626-104 137.492-79.808 252.92-115.58 383.188-138.564-39.446-22.414-87.080-38.86-142.314-48.812 134.508-78.080 246.43-110.372 375.374-131.812-33.56-19.1-72.914-34.148-119.94-42.626 155.354-90.168 274.062-108.56 443.57-129.56v0.060c-37.648 171.4-80.466 282.76-193.25 419.69-0.404-45.716-7.74-85.36-21.188-121-38.872 126.29-91.2 229.476-188.876 348.060-0.47-53.212-8.7-100.574-24.188-142.186-41.060 126.3-97.128 232.22-196.56 352.94zM234.69 748.312c-59.12-15.534-99.17-49.26-128.812-97.060l60.624-53.5c15.936 53.65 42.034 102.696 68.188 150.56zM264.814 725.5c-27.84-51.346-53.932-101.904-67.124-155.312l19.688-17.376c38.306 30.1 80.22 84.82 95.812 127.312l-48.376 45.376z" />
<glyph unicode="&#xe911;" glyph-name="masamune" d="M49.36 910.64c-7.070-7.074-11.7-19.558-11.7-32.528 0-8.78 2.246-17.2 5.81-24.006l46.82 15.606 15.604 46.818c-6.806 3.564-15.224 5.808-24.006 5.808-12.97 0-25.454-4.628-32.526-11.7zM83.626 829.55l85.354-81.19c5.88 8.966 11.92 16.634 18.972 23.686 7.052 7.050 14.72 13.092 23.686 18.972l-81.186 85.354-11.708-35.116zM213.41 746.59c-6.134-6.134-11.636-13.526-17.744-23.612l154.892-147.334c5.29 6.614 10.428 12.432 15.896 17.9 5.47 5.47 11.288 10.608 17.902 15.898l-147.334 154.892c-10.086-6.108-17.478-11.61-23.612-17.744zM391.292 568.71c-18.228-18.23-34.16-44.894-71.34-101.196l22.184-22.184c68.32 103.24 69.294 104.212 172.534 172.534l-22.184 22.184c-56.3-37.18-82.966-53.112-101.194-71.34zM439.376 520.624c-7.996-7.994-15.154-17.080-23.716-29.322l485.73-475.168 84.948-42.472-42.472 84.948-475.168 485.73c-12.24-8.562-21.328-15.72-29.322-23.716z" />
<glyph unicode="&#xe912;" glyph-name="pole" d="M519.264 902.96c-30.42-59.552-53.596-118.52-72.294-177.304l-7.776-24.452-20.344 15.64c-46.552 35.78-89.74 77.596-127.77 127.784 3.434-66.78 12.846-129.432 26.044-189.686l5.492-25.066-25.44 3.372c-58.204 7.712-116.514 22.33-174.54 46.78 36.36-56.114 75.84-105.67 117.4-151.252l17.28-18.96-23.712-9.8c-54.266-22.426-112.080-38.916-174.56-46.752 59.55-30.416 118.52-53.594 177.3-72.292l24.454-7.776-15.64-20.344c-35.784-46.552-77.6-89.74-127.786-127.77 66.78 3.432 129.432 12.844 189.686 26.040l25.066 5.494-3.37-25.44c-7.712-58.204-22.33-116.514-46.78-174.54 56.114 36.36 105.67 75.84 151.252 117.4l18.96 17.28 9.8-23.712c22.426-54.264 38.916-112.076 46.752-174.56 30.42 59.552 53.596 118.52 72.294 177.304l7.776 24.452 20.344-15.64c46.552-35.78 89.74-77.596 127.77-127.784-3.434 66.78-12.846 129.432-26.044 189.686l-5.492 25.064 25.44-3.37c58.204-7.712 116.514-22.33 174.54-46.78-36.36 56.114-75.84 105.67-117.4 151.252l-17.28 18.96 23.712 9.8c54.266 22.426 112.076 38.916 174.56 46.752-59.55 30.416-118.52 53.594-177.3 72.292l-24.454 7.776 15.64 20.344c35.78 46.552 77.596 89.74 127.784 127.77-36.114-1.854-71.016-5.472-104.992-10.48l-253.246-253.242c-12.388-12.472-28.066-18.656-42.772-18.154-14.708 0.506-27.868 7.076-37.46 16.792-19.18 19.432-23.448 55.36 0.814 80.332l0.090 0.094 236.196 236.2c8.434 39.016 20.386 78.026 36.77 116.908-56.116-36.364-105.672-75.84-151.254-117.4l-18.96-17.284-9.8 23.714c-22.426 54.258-38.914 112.072-46.754 174.558zM967.324 901.324l-172.224-109.6v-62.626h62.628l109.6 172.224zM759.1 721.38l-260.306-260.304c-12.22-12.576-8.424-22.444-1.010-29.954 3.706-3.754 8.47-5.944 13.066-6.1 4.594-0.16 9.594 1.094 16.004 7.546l260.526 260.532h-28.28v28.28zM289.28 210.986c-8.119-1.953-24.892-5.056-41.773-7.839l-7.687-1.047-184.78-184.78 28.28-28.28 202.326 202.324c0.603 2.2 1.87 8.848 3.040 15.53l0.594 4.094z" />
<glyph unicode="&#xe913;" glyph-name="scepter" d="M512 928c-80.4 0-146-65.58-146-146 0-64.4 42-119.2 100-138.6v-675.4h92v675.4c58 19.4 100 74.2 100 138.6 0 80.42-65.6 146-146 146zM512 892c61 0 110-49.040 110-110 0-61-49-110-110-110s-110 49-110 110c0 7.1 0.6 14.040 2 20.76 10.4-22.78 33.4-38.76 60-38.76 36.2 0 66 29.76 66 66 0 26.54-16 49.58-38.8 60.040 6.8 1.26 13.6 1.96 20.8 1.96zM59.020 828.24c8.7-47 18.46-91.44 29.74-133.64 92.6-50.4 229.84-109.4 341.24-139v20.4c-130.8 66-278.6 170.6-370.98 252.24zM965 828.24c-92.4-81.64-240.2-186.24-371-252.24v-20.4c111.4 29.6 248.6 88.6 341.2 139 11.4 42.2 21.2 86.66 29.8 133.64zM57.16 670.8c12.64-31 25.62-60.4 39.1-88.2 92.040-34.6 222.94-71 333.74-87.4v23.2c-124 31.2-274.66 96.6-372.84 152.4zM966.8 670.8c-98.2-55.8-248.8-121.2-372.8-152.4v-23.2c110.8 16.4 241.8 52.8 333.8 87.4 13.4 27.8 26.4 57.2 39 88.2zM494 637.2c6-0.8 12-1.2 18-1.2s12 0.4 18 1.2v-527.2h-36zM66.74 555.2c19.12-33 38.42-63.8 58.16-92.8 86.3-17 205.5-30 305.1-29.2v25.4c-122.6 17.2-265.9 58-363.26 96.6zM957.2 555.2c-97.2-38.6-240.6-79.4-363.2-96.6v-25.4c99.6-0.8 219 12.2 305 29.2 19.8 29 39.2 59.8 58.2 92.8zM103.2 430.2c73.4-88.4 145.2-156.4 225.2-200.8 39-21.8 69.2-37.2 101.6-46.8v214.6c-109-1.4-236.4 13.4-326.8 33zM920.8 430.2c-90.4-19.6-217.8-34.4-326.8-33v-214.6c32.4 9.6 62.6 25 101.6 46.8 80 44.4 151.8 112.4 225.2 200.8z" />
<glyph unicode="&#xe914;" glyph-name="halberd" d="M470.060 902.25l-113.436-49.44 209.5-209.5c40.288-40.272 40.288-106.21 0-146.5-40.284-40.284-106.22-40.28-146.5 0l-208.874 208.88-41.376-103.564c56.634-62.126 93.586-158.040 100.626-256.876 2.424-34.020 1.244-68.496-4.188-101.94 298.080 39.154 534.232 274.14 571.062 566.94-35.58-6.836-72.226-8.892-108.312-6.812-99.98 5.76-196.274 42.31-258.5 98.81zM986.060 877.562c-32.84-26.808-70.506-45.7-110.434-57.81-33.5-320.556-292.64-578.49-618.126-615.126 0-0.004-0.060 0.006-0.060 0-10.854-39.714-28.46-77.050-54-109.25 155.62 2.324 297.786 44.632 417 117.376l213.31-13.126 4.25 213.124c93.766 128.486 147.99 288.29 148.060 464.812zM407.25 749.314l-93.75-93.5 88.812-88.812 93.75 93.5-88.81 88.812zM180.31 522.94l-140.37-140.066v-177.564l186.5 186.126c-8.76 47.728-24.89 93.32-46.128 131.5z" />
<glyph unicode="&#xe915;" glyph-name="zweihander" d="M49.36 910.64c-7.070-7.074-11.7-19.558-11.7-32.528 0-8.78 2.246-17.2 5.81-24.006l46.82 15.606 15.604 46.818c-6.806 3.564-15.224 5.808-24.006 5.808-12.97 0-25.454-4.628-32.526-11.7zM83.626 829.55l85.354-81.19c5.88 8.966 11.92 16.634 18.972 23.686 7.052 7.050 14.72 13.092 23.686 18.972l-81.186 85.354-11.708-35.116zM213.41 746.59c-6.134-6.134-11.636-13.526-17.744-23.612l154.892-147.334c5.29 6.614 10.428 12.432 15.896 17.9 5.47 5.47 11.288 10.608 17.902 15.898l-147.334 154.892c-10.086-6.108-17.478-11.61-23.612-17.744zM391.292 568.71c-18.228-18.23-34.16-44.894-71.34-101.196l22.184-22.184c68.32 103.24 69.294 104.212 172.534 172.534l-22.184 22.184c-56.3-37.18-82.966-53.112-101.194-71.34zM439.376 520.624c-7.996-7.994-15.154-17.080-23.716-29.322l485.73-475.168 84.948-42.472-42.472 84.948-475.168 485.73c-12.24-8.562-21.328-15.72-29.322-23.716z" />
<glyph unicode="&#xe916;" glyph-name="prime" d="M155.7 936.304l19.070-141.296-138.836 22.348 83.016-112.14-22.254-645.43c-23.424-26.47-41.432-57.7-51.646-95.828 148.396 111.668 305.76 143.204 447.212 202.766l-71.826 71.828c-106.244-50.464-211.548-84.98-285.094-142.694l19.348 561.080 16.12-21.776 4.4-8.94h142.608l399.628-454.282c31.236 27.254 59.21 56.82 85.32 89.29l-459.754 387.56v142.758l-23.72 18.33 547.188 21.32c-59.98-72.72-93.68-178.14-142.78-284.832l73.116-73.12c58.44 140.48 90.028 296.18 200.524 443.014-37.080-9.94-67.38-26.030-93.208-47.206l-0.040 1.012-630.874-24.58-117.52 90.82zM204.926 851.028l100.71-77.832v-109.59h-107.164l-1.214 0.292-76.714 101.976 98-15.78-13.62 100.932zM701.132 516.068c-16.324-26.55-34.088-51.67-53.172-75.454l61.454-51.806c22.32 17.5 45.136 34.352 68.12 50.864l-76.4 76.4zM901.144 336.588c-71.492-113.628-150.776-201.448-269.384-271.928 118.286-41.366 236.976-74.604 357.6-87.96-17.412 121.32-47.954 241.124-88.216 359.88zM532.984 325.040c-26.84-21.96-55.16-42.372-84.828-61.348l74.94-74.94c17.496 29.14 37.24 55.908 58.654 80.86l-48.766 55.428z" />
<glyph unicode="&#xe917;" glyph-name="cassowar" d="M991.040 916.368l-188.22-17.374-516.090-516.106c-31.108 45.432-55.91 93.14-70.828 140.32l-8.196 25.92-21.266-16.94c-39.128-31.18-62.846-62.19-73.71-93.3-10.86-31.108-7.916-61.776 3.434-88.168 19.76-45.954 61.95-80.192 102.52-105.724-49.068-62.7-105.28-113.020-164.18-160.42l-6.972-5.616v-8.948c0-29.544 9.464-54.62 27.168-71.368 17.7-16.75 42.134-24.252 68.444-24.25h9.4l5.604 7.548c45.854 61.76 96.56 118.266 159.42 164.080 21.82-35.306 52.294-76.044 96.646-97.328 25.896-12.428 56.784-17.25 89.844-8.7s67.832 29.736 104.84 66.746l21.76 21.76-29.344 9.274c-50.614 15.996-99.166 42.668-145.54 75.574l65.974 65.976c-1.312-1.53-2.62-3.116-3.926-4.824l7.78 8.68 5.56 5.56c33.228 27.674 67.232-3 86.6-119.96 13.34 129.36 70.106 149.45 77.12 94.684v-309.424h37.374v372.53l0.35-3.656c8.96 99.914 59.268 78.096 67.992-49.992v-305.67h37.38v138.816c11.8 87.748 77.48 109.94 95.36 20.496l-0.59-169.15 37.376-0.132 2.72 780.252 18.194 178.836zM949.26 874.976l-13.060-128.324-537.754-537.772 17.16-12.934c45.29-34.154 93.49-63 144.534-83.068-24.5-20.372-46.406-31.776-65.44-36.7-24.66-6.38-45.074-3.024-64.32 6.21-38.48 18.47-70.424 63.812-91.236 99.856l-10.034 17.38-16.62-11.248c-72.12-48.8-128.34-110.286-177.95-176.004-14.894 1.352-26.3 5.988-34.15 13.416-8.046 7.614-13.46 18.994-14.87 35.98 62.244 50.548 123.074 105.748 175.566 176.97l12.4 16.826-18.1 10.45c-42.14 24.33-88.22 60.72-104.886 99.472-8.332 19.376-10.28 38.74-2.484 61.074 6.134 17.568 19.264 37.36 41.664 58.72 18.776-49.088 46.030-97.354 79.26-142.616l12.88-17.55 537.884 537.9 129.554 11.96zM857.14 809.872l-528.472-528.472 26.43-26.432 528.474 528.472-26.43 26.432zM901.5 558.5c14.612 0 29.234-15.1 29.234-37.56s-14.616-37.56-29.234-37.56c-14.612 0-29.234 15.104-29.234 37.56 0 22.46 14.616 37.56 29.234 37.56zM860.43 458.812c6.746 0 15.38-5.080 23.46-19.060 8.084-13.974 13.91-35.34 13.91-59.19 0-23.846-5.824-45.214-13.906-59.188-8.080-13.976-16.714-19.060-23.464-19.060-6.746 0-15.38 5.084-23.46 19.060-8.084 13.976-13.912 35.34-13.912 59.19 0 23.852 5.826 45.22 13.908 59.194 8.084 13.976 16.712 19.060 23.46 19.060z" />
<glyph unicode="&#xe918;" glyph-name="lance" d="M37.012 920.21v-75.12l233.208-233.21 67.51 67.514-239.79 240.816h-60.926zM630.86 756.996c-16.796-35.39-35.16-69.028-55.11-100.96 106.104-111.2 218.188-330.31 291.204-541.654l12.664-36.654-36.56 12.934c-209.374 74.068-441.24 182.528-548.748 283.934-31.944-19.96-65.586-38.33-100.98-55.126 107.386-71.37 243.14-138.444 378.992-190.332-28.874-14.376-59.876-27.18-93.16-38.54l0.004-0.006c136.528-77.26 351.14-130.94 508.824-128.254 2.66 156.104-54.16 377.9-128.254 508.832-11.52-33.74-24.514-65.14-39.12-94.332-52.916 138.41-120.774 276.364-189.76 380.16zM395.144 683.95l-123.564-123.57c68.414-63.24 135.55-113.526 189.596-143.196 28.908-15.87 54.188-25.9 72.668-29.524s27.556-0.68 31.128 2.89c3.572 3.572 6.52 12.652 2.896 31.13-3.624 18.48-13.66 43.76-29.528 72.668-29.67 54.046-79.952 121.18-143.196 189.6zM554.668 623.79c-9.32-13.62-18.96-26.9-28.914-39.852 17.784-25.114 33.040-49.174 45.352-71.604 17.030-31.020 28.612-58.86 33.436-83.46 4.828-24.6 3.056-48.56-13.14-64.754-16.192-16.192-40.152-17.964-64.752-13.14-24.6 4.826-52.44 16.412-83.46 33.44-22.2 12.188-46 27.264-70.828 44.81-14.82-11.586-30.054-22.774-45.754-33.52 94.526-84.42 299.328-184.634 491.090-255.746-70.38 191.532-172.694 385.204-263.028 483.826z" />
<glyph unicode="&#xe919;" glyph-name="spear" d="M867.754 920.29l-157.24-317.336 95.64-107.868-31.346-521.648h77.58l31.394 522.466 102.080 90.5-118.106 333.884zM606.794 879.094l-174.648-224.194 56.794-98.372-57.232-212.774-0.204 0.352-19.090-71.24 0.152-0.268-80.468-299.16h65.36l59.352 222.372 0.052-0.090 19.054 71.112-0.108 0.18 73.312 274.688 96.83 55.9-39.154 281.496zM223.264 653.58l28.96-233.080 88.84-23.808 44.936-77.988 19.11 71.32-18.512 32.2 24.044 89.74-187.38 141.62zM124.55 504.96l-85.36-158.62 47.14-56.91-24.758-315.99h37.492l24.596 314.040 55.216 45.73-54.33 171.75zM638.67 483.204l-44.708-174.496 59.372-43.864 36.746-291.404h37.68l-37.646 298.47 42.586 57.648-94.032 153.644zM988.876 425.976l-80.216-452.54h37.96l42.256 238.376v214.164zM309.070 348.204l-110.7-142.1 37.236-64.494-40.82-168.172h38.466l39.020 160.77 61.62 35.576-24.816 178.42h-0.004zM502.316 220.914l-19.034-71.032 101.674-176.44h59.6l-142.24 247.474z" />
<glyph unicode="&#xe91a;" glyph-name="frostmourne" d="M100.696 921.26c-1.232-0.040-2.46-0.132-3.704-0.32h-0.004c-34.76-5.292-58.4-29.58-58.4-72.416 70.61-36.566 133.51-85.368 171.7-170.532l-80.588-116.804 51.394-50.228c14.376 28.034 30.776 55.27 50.226 81.766l136.66 135.492c28.692 21.632 57.926 41.34 88.77 57.23l-50.23 50.228-123.812-85.266c-75.188 34.526-131.828 87.494-170.532 170.53-4.070 0-7.784 0.42-11.48 0.32zM429.056 726.8c-10.040-6.36-20.536-13.62-31.264-21.6l120.568-120.504-81.892-13.404-86.136 84.1-92.274-86.188 0.55-0.59c-7.414-9.886-14.18-19.696-20.070-29.29l511.972-511.7 233.91-40.992-45.020 230.088-510.348 510.080zM349.762 603.714l74.108-72.354 42.296 6.92 13.12-79.49-93.39-13.9-99.6 99.548 63.468 59.274zM550.922 552.148l176.396-176.304-31.972-73.080-66.746 66.35-123.108-43.754-86.688 86.64 103.536 15.41-19.29 116.906 47.872 7.832zM755.702 347.472l149.206-149.128 32.386-165.504-70.628 12.38-15.27 102.412-127.616 126.864 31.92 72.976zM618.942 326.012l197.314-196.148 11.606-77.844-59.27 10.386-233.82 233.692 84.168 29.912z" />
<glyph unicode="&#xe91b;" glyph-name="mjollnir" d="M532.066 895.16l-170.476-170.476v-39.598l210.074 210.074h-39.598zM615.122 887.704l-246.076-246.076 336.582-336.58 246.076 246.072-336.584 336.58zM959.162 507.664l-210.078-210.074h39.598l170.476 170.476v39.598zM479.356 480.41l-19.8-19.8 65.054-65.056 19.8 19.8-65.054 65.056zM434.102 435.156l-47.056-47.054h94.11l-47.054 47.054zM351.046 352.102l-54.51-54.512h130.108l54.512 54.512h-130.11zM260.536 261.59l-54.508-54.508h130.108l54.508 54.508h-130.108zM206.028 171.082l47.054-47.054 47.054 47.054h-94.108zM162.57 163.626l-19.796-19.798 65.054-65.054 19.796 19.796-65.054 65.054zM85.036 125.828l-15.008-45.024 74.776-74.776 45.024 15.008v24.828l-79.968 79.964h-24.824z" />
<glyph unicode="&#xe91c;" glyph-name="mace" d="M975.332 911.332c-49.24-22.372-91.092-37.216-126.28-43.8l82.48-82.48c6.584 35.188 21.428 77.040 43.8 126.28zM803.168 862.504c-64.176-22.98-120.070-25.48-168.812-9.234l-19.348 6.444-3.996-19.992c-20.234-101.164-37.774-166.56-73.42-243.388l122.74-122.74c76.826 35.646 142.224 53.186 243.39 73.42l19.994 3.996-6.444 19.348c-16.248 48.74-13.746 104.636 9.234 168.812zM807.218 826.208c-27.694-23.37-59.696-39.9-110.68-39.9h-11.12l-4.974-9.948c-37.536-75.072-75.67-149.814-110.988-196.54 34.9 75.18 53.75 142.092 72.8 234.176 50.41-12.12 105.626-7.68 164.96 12.212zM823.022 793.656l-215.722-223.57c34.728 48.708 67.468 114.408 100.552 180.64 49.806 2.386 85.76 20.25 115.172 42.93zM857.654 759.024c-22.68-29.414-40.544-65.366-42.93-115.172-66.232-33.084-131.932-65.824-180.64-100.552zM890.206 743.218c-19.89-59.334-24.332-114.55-12.212-164.96-92.084-19.050-159-37.9-234.176-72.8 46.726 35.316 121.468 73.45 196.54 110.986l9.948 4.976v11.12c0 50.984 16.53 82.986 39.9 110.68zM505.622 577.388l-25.456-25.456 135.766-135.766 25.456 25.456-120.426 120.426zM492.896 493.952l-87.686-87.684 65.056-65.056 87.684 87.684zM357.128 403.44l-25.456-25.456 110.308-110.308 25.46 25.456zM328.844 329.9l-82.024-82.020 65.054-65.056 82.020 82.024zM198.74 245.052l-25.454-25.456 110.308-110.308 25.456 25.456zM170.46 171.512l-134.46-134.456v-65.056h65.054l134.46 134.46z" />
<glyph unicode="&#xe91d;" glyph-name="trident" d="M34.312 927.124v-83.312l351.248-352.252-126.812-126.81 22.816-22.75 213.38-213.376-49.064-49.060 251.5-107.688-107.75 251.436-46.814-46.812-189.44 189.44 96.88 96.872 271.56-271.5-47.94-47.874 251.44-107.752-107.688 251.44-47.936-47.94-271.56 271.5 96.934 96.94 189.44-189.44-46.75-46.812 251.44-107.688-107.752 251.44-49.066-49.066-236.19 236.128-126.876-126.812-351.688 351.748h-83.31z" />
<glyph unicode="&#xe91e;" glyph-name="back" d="M497.92 794.88l-75.52 75.52-422.4-422.4 422.4-422.4 75.52 75.52-346.88 346.88z" />
</font>
</defs>
</svg>
